<svg width="285" height="648" viewBox="0 0 285 648" fill="none" xmlns="http://www.w3.org/2000/svg">
<path d="M323.707 330.113C325.921 331.007 325.072 335.499 320.77 335.878C316.781 336.585 310.851 331.573 312.169 324.234C312.942 317.062 322.126 309.904 332.518 312.82C342.769 315.081 351.403 328.432 346.784 341.871C343.067 355.249 325.469 365.204 309.021 358.937C292.507 353.719 281.184 331.96 289.09 312.475C295.747 292.837 321.759 280.201 344.268 289.761C367.006 297.942 381.113 328.092 369.86 353.629C360.202 379.539 325.875 394.857 297.271 381.997C268.228 370.837 251.505 332.371 266.014 300.717C278.662 268.643 321.309 250.469 356.017 266.701C391.319 280.842 410.749 327.659 392.937 365.387C377.342 403.736 326.298 424.588 285.522 405.056C243.997 387.936 221.788 332.747 242.937 288.958C261.506 244.368 320.906 220.804 367.767 243.642C415.56 263.694 440.453 327.304 416.013 377.145C394.484 427.959 326.696 454.291 273.773 428.114C219.735 405.076 192.112 333.132 219.861 277.2C244.387 220.1 320.5 191.151 379.515 220.584C439.767 246.636 470.199 326.871 439.09 388.903C411.621 452.267 327.107 483.907 262.024 451.173C195.532 422.148 162.372 333.552 196.785 265.442C227.22 195.847 320.109 161.462 391.265 197.524C464.031 229.47 499.855 326.532 462.167 400.661C428.756 476.501 327.504 513.611 250.275 474.233C171.281 439.294 132.66 333.919 173.708 253.684C210.058 171.586 319.717 131.803 403.014 174.466C488.305 212.391 529.533 326.122 485.243 412.419C445.88 500.731 327.938 543.321 238.525 497.292C146.962 456.405 103.042 334.319 150.631 241.926C192.979 147.378 319.269 102.072 414.763 151.406C512.556 195.246 559.238 325.766 508.32 424.177C463.015 525.021 328.344 572.974 226.777 520.35C122.737 473.522 73.3152 334.69 127.554 230.168C175.822 123.105 318.877 72.3846 426.512 128.348C536.815 178.118 588.927 325.362 531.396 435.936C480.132 549.291 328.764 602.633 215.027 543.409C98.5176 490.628 43.5822 335.099 104.478 218.41C158.678 98.7791 318.459 42.78 438.261 105.288C561.027 161.05 618.661 324.924 554.473 447.694C497.31 573.547 329.136 632.325 203.278 566.469C74.2498 507.751 13.9147 335.488 81.4011 206.652C141.548 74.5614 318.063 13.0766 450.01 82.2296C585.269 143.9 648.366 324.568 577.549 459.452C514.473 597.811 329.527 661.985 191.529 589.528C49.9758 524.857 -15.7531 335.878 58.3244 194.893C124.402 50.3757 317.645 -16.6659 461.759 59.1705C609.582 126.8 678.001 324.164 600.626 471.21C531.556 622.007 329.978 691.717 179.78 612.586C25.7232 542.002 -45.4633 336.243 35.2479 183.135C107.257 26.0797 317.238 -46.3198 473.509 36.1116" stroke="#B9752E" stroke-opacity="0.4" stroke-width="3" stroke-linecap="round"/>
</svg>
