<svg width="329" height="335" viewBox="0 0 329 335" fill="none" xmlns="http://www.w3.org/2000/svg">
<path d="M226.645 231.921C228.192 232.545 227.593 235.693 224.585 235.963C221.796 236.463 217.655 232.958 218.585 227.814C219.133 222.788 225.561 217.763 232.823 219.795C239.987 221.368 246.008 230.713 242.765 240.134C240.152 249.512 227.838 256.506 216.346 252.133C204.808 248.495 196.916 233.261 202.464 219.6C207.139 205.834 225.337 196.952 241.062 203.625C256.949 209.333 266.779 230.443 258.884 248.348C252.104 266.512 228.09 277.282 208.107 268.303C187.816 260.515 176.167 233.582 186.344 211.387C195.221 188.9 225.055 176.12 249.301 187.456C273.965 197.325 287.497 230.107 275.004 256.561C264.06 283.448 228.353 298.114 199.869 284.473C170.858 272.522 155.392 233.877 170.224 203.173C183.254 171.91 224.805 155.335 257.54 171.286C290.93 185.284 308.263 229.826 291.124 264.774C276.017 300.401 228.599 318.925 191.63 300.641C153.878 284.558 134.645 234.179 154.105 194.96C171.313 154.925 224.553 134.559 265.778 155.118C307.871 173.305 329.059 229.49 307.243 272.988C287.971 317.414 228.854 339.675 183.391 316.81C136.94 296.546 113.854 234.506 137.985 186.747C159.338 137.951 224.312 113.758 274.017 138.948C324.853 161.251 349.791 229.22 323.363 281.201C299.924 334.375 229.1 360.487 175.153 332.98C119.967 308.586 93.0827 234.795 121.866 178.533C147.366 120.97 224.071 92.9765 282.256 122.778C341.841 149.259 370.539 228.901 339.483 289.415C311.868 351.334 229.371 381.303 166.914 349.15C102.948 320.601 72.3768 235.108 105.746 170.32C135.453 104.027 223.79 72.1458 290.495 106.609C358.813 137.219 391.305 228.619 355.602 297.628C323.821 368.335 229.622 402.079 158.676 365.318C85.9939 332.621 51.5946 235.4 89.6259 162.106C123.485 87.0384 223.548 51.3453 298.733 90.4396C375.791 125.192 412.061 228.304 371.722 305.841C335.761 385.321 229.884 422.861 150.437 381.488C69.0438 344.632 30.8082 235.719 73.5063 153.893C111.527 70.013 223.288 30.6029 306.972 74.2701C392.735 113.207 432.849 227.965 387.842 314.055C347.744 402.297 230.112 443.664 142.198 397.658C52.0599 356.656 10.0677 236.024 57.3864 145.679C99.5778 53.0632 223.044 9.79124 315.211 58.1009C409.701 101.164 453.615 227.683 403.961 322.268C359.715 419.28 230.353 464.445 133.959 413.827C35.0717 368.668 -10.6731 236.329 41.2666 137.466C87.6176 36.1358 222.784 -11.0478 323.449 41.9314C426.717 89.1563 474.333 227.368 420.081 330.481C371.632 436.215 230.636 485.277 125.721 429.996C18.0985 380.707 -31.4434 236.617 25.1469 129.252C75.6581 19.1311 222.531 -31.8248 331.688 25.7621" stroke="white" stroke-opacity="0.34" stroke-width="3" stroke-linecap="round"/>
</svg>
