<svg width="33" height="33" viewBox="0 0 33 33" fill="none" xmlns="http://www.w3.org/2000/svg">
<rect width="33" height="33" rx="9" fill="#FFFEFE"/>
<path d="M22.3684 4H10.7741C7.03289 4 4 7.03289 4 10.7741V22.3684C4 26.1096 7.03289 29.1425 10.7741 29.1425H22.3684C26.1096 29.1425 29.1425 26.1096 29.1425 22.3684V10.7741C29.1425 7.03289 26.1097 4 22.3684 4Z" fill="#B9752E" stroke="#FFFEFE" stroke-width="1.07509" stroke-miterlimit="10"/>
<path d="M16.5718 22.6397C19.9236 22.6397 22.6407 19.9226 22.6407 16.5709C22.6407 13.2191 19.9236 10.502 16.5718 10.502C13.2201 10.502 10.5029 13.2191 10.5029 16.5709C10.5029 19.9226 13.2201 22.6397 16.5718 22.6397Z" fill="#B9752E" stroke="#FFFEFE" stroke-width="1.07509" stroke-miterlimit="10"/>
<path d="M23.9404 8.16992C24.5101 8.17008 24.9717 8.63245 24.9717 9.20215C24.9715 9.77171 24.51 10.2332 23.9404 10.2334C23.3707 10.2334 22.9084 9.77181 22.9082 9.20215C22.9082 8.63235 23.3706 8.16992 23.9404 8.16992Z" fill="#B9752E" stroke="#FFFEFE" stroke-width="0.537546"/>
</svg>
