<svg width="24" height="24" viewBox="0 0 24 24" fill="none" xmlns="http://www.w3.org/2000/svg">
<g clip-path="url(#clip0_240_1404)">
<path d="M9.70898 16.125H2.37498C2.13195 16.1253 1.89897 16.222 1.72721 16.3939C1.55546 16.5659 1.45898 16.799 1.45898 17.042V21.625C1.45898 22.131 1.86898 22.542 2.37498 22.542H9.70998C10.216 22.542 10.626 22.132 10.626 21.625V17.042C10.626 16.799 10.5295 16.5659 10.3578 16.3939C10.186 16.222 9.95302 16.1253 9.70998 16.125" fill="#FF808C"/>
<path d="M6.04198 16.125H2.37498C2.13195 16.1253 1.89897 16.222 1.72721 16.3939C1.55546 16.5659 1.45898 16.799 1.45898 17.042V21.625C1.45898 21.868 1.55546 22.1011 1.72721 22.2731C1.89897 22.445 2.13195 22.5417 2.37498 22.542H6.04198V16.125Z" fill="#FFBFC5"/>
<path d="M14.292 22.542H21.625C22.131 22.542 22.542 22.132 22.542 21.625V11.542C22.542 11.2988 22.4454 11.0656 22.2734 10.8936C22.1014 10.7216 21.8682 10.625 21.625 10.625H14.292C14.0488 10.625 13.8156 10.7216 13.6436 10.8936C13.4716 11.0656 13.375 11.2988 13.375 11.542V21.625C13.375 22.131 13.785 22.542 14.292 22.542Z" fill="#78EB7B"/>
<path d="M17.958 10.625H14.292C14.0488 10.625 13.8156 10.7216 13.6436 10.8936C13.4716 11.0656 13.375 11.2988 13.375 11.542V21.625C13.375 21.8682 13.4716 22.1014 13.6436 22.2734C13.8156 22.4454 14.0488 22.542 14.292 22.542H17.958V10.625Z" fill="#C9F7CA"/>
<path d="M14.292 7.875H21.625C22.131 7.875 22.542 7.465 22.542 6.958V2.375C22.542 2.1318 22.4454 1.89855 22.2734 1.72658C22.1014 1.55461 21.8682 1.458 21.625 1.458H14.292C14.0488 1.458 13.8156 1.55461 13.6436 1.72658C13.4716 1.89855 13.375 2.1318 13.375 2.375V6.958C13.375 7.465 13.785 7.875 14.292 7.875Z" fill="#FFEF5E"/>
<path d="M17.958 1.458H14.292C14.0488 1.458 13.8156 1.55461 13.6436 1.72658C13.4716 1.89855 13.375 2.1318 13.375 2.375V6.958C13.375 7.2012 13.4716 7.43445 13.6436 7.60642C13.8156 7.77839 14.0488 7.875 14.292 7.875H17.958V1.458Z" fill="#FFF7AE"/>
<path d="M9.70898 1.458H2.37498C2.13195 1.45827 1.89897 1.55499 1.72721 1.72694C1.55546 1.89888 1.45898 2.13197 1.45898 2.375V12.458C1.45898 12.965 1.86898 13.375 2.37498 13.375H9.70998C10.216 13.375 10.626 12.965 10.626 12.458V2.375C10.626 2.13197 10.5295 1.89888 10.3578 1.72694C10.186 1.55499 9.95302 1.45827 9.70998 1.458" fill="#78EB7B"/>
<path d="M6.04198 1.458H2.37498C2.13195 1.45827 1.89897 1.55499 1.72721 1.72694C1.55546 1.89888 1.45898 2.13197 1.45898 2.375V12.458C1.45898 12.701 1.55546 12.9341 1.72721 13.1061C1.89897 13.278 2.13195 13.3747 2.37498 13.375H6.04198V1.458Z" fill="#C9F7CA"/>
<path d="M9.70898 16.125H2.37498C2.13195 16.1253 1.89897 16.222 1.72721 16.3939C1.55546 16.5659 1.45898 16.799 1.45898 17.042V21.625C1.45898 22.131 1.86898 22.542 2.37498 22.542H9.70998C10.216 22.542 10.626 22.132 10.626 21.625V17.042C10.626 16.799 10.5295 16.5659 10.3578 16.3939C10.186 16.222 9.95301 16.1253 9.70998 16.125M9.70898 1.458H2.37498C2.13195 1.45827 1.89897 1.55499 1.72721 1.72694C1.55546 1.89888 1.45898 2.13197 1.45898 2.375V12.458C1.45898 12.965 1.86898 13.375 2.37498 13.375H9.70998C10.216 13.375 10.626 12.965 10.626 12.458V2.375C10.626 2.13197 10.5295 1.89888 10.3578 1.72694C10.186 1.55499 9.95301 1.45827 9.70998 1.458M14.292 22.542H21.625C22.131 22.542 22.542 22.132 22.542 21.625V11.542C22.542 11.2988 22.4454 11.0656 22.2734 10.8936C22.1014 10.7216 21.8682 10.625 21.625 10.625H14.292C14.0488 10.625 13.8155 10.7216 13.6436 10.8936C13.4716 11.0656 13.375 11.2988 13.375 11.542V21.625C13.375 22.131 13.785 22.542 14.292 22.542ZM14.292 7.875H21.625C22.131 7.875 22.542 7.465 22.542 6.958V2.375C22.542 2.1318 22.4454 1.89855 22.2734 1.72658C22.1014 1.55461 21.8682 1.458 21.625 1.458H14.292C14.0488 1.458 13.8155 1.55461 13.6436 1.72658C13.4716 1.89855 13.375 2.1318 13.375 2.375V6.958C13.375 7.465 13.785 7.875 14.292 7.875Z" stroke="#191919" stroke-linecap="round" stroke-linejoin="round"/>
</g>
<defs>
<clipPath id="clip0_240_1404">
<rect width="24" height="24" fill="white"/>
</clipPath>
</defs>
</svg>
