<svg width="159" height="104" viewBox="0 0 159 104" fill="none" xmlns="http://www.w3.org/2000/svg">
<path d="M226.647 -119.079C228.194 -118.455 227.595 -115.307 224.587 -115.037C221.798 -114.537 217.657 -118.042 218.587 -123.186C219.135 -128.212 225.563 -133.237 232.825 -131.205C239.989 -129.632 246.01 -120.287 242.767 -110.866C240.154 -101.488 227.84 -94.4942 216.348 -98.867C204.81 -102.505 196.918 -117.739 202.466 -131.4C207.141 -145.166 225.339 -154.048 241.064 -147.375C256.951 -141.667 266.781 -120.557 258.886 -102.652C252.106 -84.4876 228.092 -73.7179 208.109 -82.6972C187.818 -90.4853 176.169 -117.418 186.346 -139.613C195.223 -162.1 225.056 -174.88 249.303 -163.544C273.967 -153.675 287.499 -120.893 275.006 -94.439C264.062 -67.5523 228.355 -52.8864 199.87 -66.5275C170.86 -78.4778 155.394 -117.123 170.226 -147.827C183.256 -179.09 224.807 -195.665 257.542 -179.714C290.932 -165.716 308.265 -121.174 291.126 -86.2256C276.019 -50.5989 228.601 -32.0755 191.632 -50.3593C153.88 -66.4421 134.647 -116.821 154.107 -156.04C171.315 -196.075 224.555 -216.441 265.78 -195.882C307.873 -177.695 329.061 -121.51 307.245 -78.0122C287.973 -33.5858 228.856 -11.3251 183.393 -34.1895C136.942 -54.454 113.856 -116.494 137.987 -164.253C159.34 -213.049 224.314 -237.242 274.019 -212.052C324.855 -189.749 349.793 -121.78 323.365 -69.7988C299.926 -16.6246 229.102 9.48734 175.155 -18.0198C119.969 -42.4143 93.0847 -116.205 121.868 -172.467C147.368 -230.03 224.073 -258.024 282.258 -228.222C341.843 -201.741 370.541 -122.099 339.485 -61.5855C311.87 0.334179 229.373 30.3032 166.916 -1.85001C102.95 -30.3986 72.3787 -115.892 105.748 -180.68C135.455 -246.973 223.792 -278.854 290.497 -244.391C358.815 -213.781 391.307 -122.381 355.604 -53.3721C323.823 17.3347 229.624 51.0795 158.678 14.3182C85.9959 -18.3793 51.5965 -115.6 89.6279 -188.894C123.487 -263.962 223.55 -299.655 298.735 -260.56C375.792 -225.808 412.063 -122.696 371.724 -45.1587C335.763 34.321 229.886 71.8606 150.439 30.4879C69.0458 -6.36773 30.8102 -115.281 73.5082 -197.107C111.529 -280.987 223.29 -320.397 306.974 -276.73C392.737 -237.793 432.85 -123.035 387.844 -36.9453C347.746 51.2974 230.114 92.6642 142.2 46.6577C52.0619 5.65621 10.0696 -114.976 57.3884 -205.321C99.5797 -297.937 223.045 -341.209 315.213 -292.899C409.703 -249.836 453.617 -123.317 403.963 -28.7319C359.717 68.28 230.355 113.445 133.961 62.8274C35.0737 17.6681 -10.6711 -114.671 41.2685 -213.534C87.6196 -314.864 222.786 -362.048 323.451 -309.069C426.719 -261.844 474.335 -123.632 420.083 -20.5185C371.634 85.215 230.638 134.277 125.723 78.9956C18.1004 29.7073 -31.4415 -114.383 25.1489 -221.748C75.66 -331.869 222.533 -382.825 331.69 -325.238" stroke="white" stroke-opacity="0.34" stroke-width="3" stroke-linecap="round"/>
</svg>
