<svg width="21" height="22" viewBox="0 0 21 22" fill="none" xmlns="http://www.w3.org/2000/svg">
<path d="M5.43333 21H15.5667M20 6.922V14.1881C20 14.9107 19.7331 15.6038 19.258 16.1148C18.7829 16.6258 18.1385 16.9128 17.4667 16.9128H3.53333C2.86145 16.9128 2.21709 16.6258 1.742 16.1148C1.2669 15.6038 1 14.9107 1 14.1881V6.01374C1 5.29108 1.2669 4.59803 1.742 4.08703C2.21709 3.57604 2.86145 3.28896 3.53333 3.28896H8.6M10.2889 9.97374L13.5231 6.49512M13.6667 21H7.33333L7.96667 16.9128H13.0333L13.6667 21Z" stroke="black" stroke-width="1.5" stroke-linecap="round" stroke-linejoin="round"/>
<path d="M13.878 10.0917C13.878 10.8551 13.6675 11.6014 13.2731 12.2362C12.8788 12.871 12.3183 13.3658 11.6625 13.6579C11.0067 13.9501 10.2851 14.0265 9.58893 13.8776C8.89275 13.7286 8.25327 13.361 7.75136 12.8212C7.24944 12.2813 6.90763 11.5935 6.76916 10.8447C6.63068 10.0959 6.70175 9.31981 6.97338 8.61447C7.24502 7.90913 7.70502 7.30626 8.29521 6.88211C8.8854 6.45796 9.57927 6.23157 10.2891 6.23157M13.5233 6.49496L13.8695 3.10716L15.8709 1L16.1749 3.64303L18.6322 3.97L16.6731 6.12258L13.5233 6.49496Z" stroke="black" stroke-width="1.5" stroke-linecap="round" stroke-linejoin="round"/>
</svg>
