<svg width="278" height="242" viewBox="0 0 278 242" fill="none" xmlns="http://www.w3.org/2000/svg">
<path d="M11.2987 262.913C9.87104 264.286 6.80694 262.193 7.99996 258.84C8.84003 255.615 14.6187 252.784 19.6484 256.152C24.7409 259.055 26.9368 268.271 21.1935 275.132C15.9879 282.099 3.05374 284.259 -5.40086 276.436C-14.1193 269.311 -15.5184 252.869 -5.19487 242.545C4.36781 231.833 24.5064 230.378 36.3496 242.627C48.7348 253.988 49.2507 277.618 34.3883 291.426C20.4765 305.854 -6.8845 306.683 -22.1004 289.959C-38.142 274.312 -37.8084 243.569 -18.3897 226.251C-0.0898691 208.053 34.3801 207.953 53.0491 229.104C72.6687 248.994 71.615 286.911 47.5831 307.721C24.9098 329.654 -16.7273 329.082 -38.7999 303.482C-62.0969 279.347 -60.1629 234.255 -31.5845 209.957C-4.55112 184.315 44.2939 185.513 69.7487 215.581C96.688 243.972 93.913 296.218 60.778 324.015C29.4035 353.415 -26.6523 351.506 -55.4995 317.005C-86.0714 284.375 -82.487 224.933 -44.778 193.664C-9.03146 160.541 54.1869 163.099 86.4482 202.058C120.688 238.976 116.203 305.518 73.9715 340.308C33.8421 377.122 -36.5329 373.988 -72.199 330.528C-110.108 289.372 -104.751 215.648 -57.9728 177.37C-13.4817 136.833 64.0753 140.627 103.147 188.535C144.694 233.939 138.514 314.842 87.1666 356.602C38.3412 400.906 -46.453 396.371 -88.8985 344.051C-134.089 294.391 -127.076 206.323 -71.1677 161.076C-17.9701 113.065 73.9934 118.193 119.847 175.012C168.705 228.908 160.804 324.155 100.361 372.896C42.7718 424.669 -56.328 418.793 -105.598 357.574C-158.063 299.403 -149.418 197.026 -84.3625 144.781C-22.4098 89.2571 83.8546 95.8181 136.547 161.489C192.647 223.922 183.167 333.449 113.556 389.19C47.2602 448.438 -66.2517 441.218 -122.298 371.097C-182.086 304.404 -171.708 187.725 -97.556 128.489C-26.8856 65.5179 93.7757 73.3713 153.247 147.966C216.664 218.899 205.478 342.772 126.75 405.484C51.7323 472.206 -76.1347 463.647 -138.997 384.62C-206.087 309.398 -194.008 178.433 -110.751 112.195C-31.355 41.7865 103.67 50.9074 169.946 134.443C240.717 213.903 227.736 352.047 139.945 421.778C56.1767 495.919 -86.008 486.122 -155.697 398.143C-230.099 314.443 -216.315 169.094 -123.946 95.9003C-35.8209 18.0132 113.556 28.4992 186.646 120.92C264.684 208.882 250.06 361.372 153.139 438.071C60.6715 519.682 -95.932 508.547 -172.396 411.666C-254.112 319.473 -238.605 159.78 -137.14 79.606C-40.2719 -5.75921 123.443 6.09081 203.345 107.397C288.632 203.839 272.421 370.693 166.334 454.365C65.1047 543.482 -105.796 530.936 -189.096 425.189C-278.047 324.466 -260.969 150.488 -150.334 63.3134C-44.7594 -29.5282 133.362 -16.3415 220.045 93.8737C312.663 198.832 294.712 379.993 179.528 470.659" stroke="#B9752E" stroke-opacity="0.4" stroke-width="3" stroke-linecap="round"/>
</svg>
