<svg width="324" height="317" viewBox="0 0 324 317" fill="none" xmlns="http://www.w3.org/2000/svg">
<path d="M12.7054 330.113C14.9195 331.007 14.0702 335.499 9.76805 335.878C5.77922 336.585 -0.151256 331.573 1.16714 324.234C1.93961 317.062 11.1239 309.904 21.5163 312.82C31.7673 315.081 40.4011 328.432 35.7819 341.871C32.065 355.249 14.4671 365.204 -1.98139 358.937C-18.4945 353.719 -29.8177 331.96 -21.9116 312.475C-15.2545 292.837 10.7574 280.201 33.2658 289.761C56.0039 297.942 70.1111 328.092 58.8585 353.629C49.2002 379.539 14.8733 394.857 -13.7308 381.997C-42.7738 370.837 -59.4966 332.371 -44.9882 300.717C-32.3396 268.643 10.3067 250.469 45.0152 266.701C80.3169 280.842 99.7474 327.659 81.935 365.387C66.3404 403.736 15.296 424.588 -25.4802 405.056C-67.0046 387.936 -89.2137 332.747 -68.0647 288.958C-49.4962 244.368 9.90392 220.804 56.7646 243.642C104.558 263.694 129.451 327.304 105.012 377.145C83.4816 427.959 15.694 454.291 -37.2285 428.114C-91.2671 405.076 -118.89 333.132 -91.1412 277.2C-66.6146 220.1 9.49772 191.151 68.5129 220.584C128.765 246.636 159.197 326.871 128.088 388.903C100.619 452.267 16.1049 483.907 -48.978 451.173C-115.47 422.148 -148.63 333.552 -114.217 265.442C-83.7816 195.847 9.10682 161.462 80.2626 197.524C153.029 229.47 188.853 326.532 151.165 400.661C117.754 476.501 16.5018 513.611 -60.7274 474.233C-139.721 439.294 -178.342 333.919 -137.294 253.684C-100.944 171.586 8.71541 131.803 92.0117 174.466C177.303 212.391 218.531 326.122 174.241 412.419C134.878 500.731 16.9358 543.321 -72.4768 497.292C-164.04 456.405 -207.96 334.319 -160.371 241.926C-118.023 147.378 8.26677 102.072 103.761 151.406C201.554 195.246 248.236 325.766 197.318 424.177C152.013 525.021 17.342 572.974 -84.2251 520.35C-188.265 473.522 -237.687 334.69 -183.448 230.168C-135.18 123.105 7.87529 72.3846 115.51 128.348C225.813 178.118 277.925 325.362 220.394 435.936C169.13 549.291 17.7617 602.633 -95.9745 543.409C-212.484 490.628 -267.42 335.099 -206.524 218.41C-152.324 98.7791 7.45687 42.78 127.259 105.288C250.025 161.05 307.66 324.924 243.471 447.694C186.308 573.547 18.1339 632.325 -107.724 566.469C-236.752 507.751 -297.087 335.488 -229.601 206.652C-169.454 74.5614 7.06111 13.0766 139.008 82.2296C274.267 143.9 337.364 324.568 266.547 459.452C203.471 597.811 18.5254 661.985 -119.473 589.528C-261.026 524.857 -326.755 335.878 -252.678 194.893C-186.6 50.3757 6.64338 -16.6659 150.757 59.1705C298.58 126.8 366.999 324.164 289.624 471.21C220.555 622.007 18.9762 691.717 -131.222 612.586C-285.279 542.002 -356.465 336.243 -275.754 183.135C-203.745 26.0797 6.23629 -46.3198 162.507 36.1116" stroke="#B9752E" stroke-opacity="0.4" stroke-width="3" stroke-linecap="round"/>
</svg>
