<svg width="323" height="646" viewBox="0 0 323 646" fill="none" xmlns="http://www.w3.org/2000/svg">
<path d="M323.705 330.113C325.919 331.007 325.07 335.499 320.768 335.878C316.779 336.585 310.849 331.573 312.167 324.234C312.94 317.062 322.124 309.904 332.516 312.82C342.767 315.081 351.401 328.432 346.782 341.871C343.065 355.249 325.467 365.204 309.019 358.937C292.505 353.719 281.182 331.96 289.088 312.475C295.745 292.837 321.757 280.201 344.266 289.761C367.004 297.942 381.111 328.092 369.858 353.629C360.2 379.539 325.873 394.857 297.269 381.997C268.226 370.837 251.503 332.371 266.012 300.717C278.66 268.643 321.307 250.469 356.015 266.701C391.317 280.842 410.747 327.659 392.935 365.387C377.34 403.736 326.296 424.588 285.52 405.056C243.995 387.936 221.786 332.747 242.935 288.958C261.504 244.368 320.904 220.804 367.765 243.642C415.558 263.694 440.451 327.304 416.012 377.145C394.482 427.959 326.694 454.291 273.771 428.114C219.733 405.076 192.11 333.132 219.859 277.2C244.385 220.1 320.498 191.151 379.513 220.584C439.765 246.636 470.197 326.871 439.088 388.903C411.619 452.267 327.105 483.907 262.022 451.173C195.53 422.148 162.37 333.552 196.783 265.442C227.218 195.847 320.107 161.462 391.263 197.524C464.029 229.47 499.853 326.532 462.165 400.661C428.754 476.501 327.502 513.611 250.273 474.233C171.279 439.294 132.658 333.919 173.706 253.684C210.056 171.586 319.715 131.803 403.012 174.466C488.303 212.391 529.531 326.122 485.241 412.419C445.878 500.731 327.936 543.321 238.523 497.292C146.96 456.405 103.04 334.319 150.629 241.926C192.977 147.378 319.267 102.072 414.761 151.406C512.554 195.246 559.236 325.766 508.318 424.177C463.013 525.021 328.342 572.974 226.775 520.35C122.735 473.522 73.3133 334.69 127.552 230.168C175.82 123.105 318.875 72.3846 426.51 128.348C536.813 178.118 588.925 325.362 531.394 435.936C480.13 549.291 328.762 602.633 215.025 543.409C98.5157 490.628 43.5803 335.099 104.476 218.41C158.676 98.7791 318.457 42.78 438.259 105.288C561.025 161.05 618.66 324.924 554.471 447.694C497.308 573.547 329.134 632.325 203.276 566.469C74.2479 507.751 13.9127 335.488 81.3992 206.652C141.546 74.5614 318.061 13.0766 450.008 82.2296C585.267 143.9 648.364 324.568 577.547 459.452C514.471 597.811 329.525 661.985 191.527 589.528C49.9738 524.857 -15.7551 335.878 58.3224 194.893C124.4 50.3757 317.643 -16.6659 461.757 59.1705C609.58 126.8 677.999 324.164 600.624 471.21C531.555 622.007 329.976 691.717 179.778 612.586C25.7212 542.002 -45.4653 336.243 35.2459 183.135C107.255 26.0797 317.236 -46.3198 473.507 36.1116" stroke="#B9752E" stroke-opacity="0.4" stroke-width="3" stroke-linecap="round"/>
</svg>
